# xmcd
#
# Track frame offsets:
#	200
#	16194
#	29588
#	41779
#	53180
#	71670
#	83603
#	103695
#
# Disc length: 1594 seconds
#
# Revision: 0
# Processed by: cddbd v1.5.2PL0 Copyright (c) Steve Scherf et al.
# Submitted via: EasyCDDAExtractor 11.1.0.1
#
DISCID=63063808
DTITLE=Desmond Dean - Together
DYEAR=1900
DGENRE=country
TTITLE0=He's just an outlaw
TTITLE1=You make my life like a sweet sweet dream
TTITLE2=River of Bouze
TTITLE3=The photographs
TTITLE4=Where did they all go
TTITLE5=Just outside my window
TTITLE6=Together
TTITLE7=The old man picked a rose
EXTD=
EXTT0=
EXTT1=
EXTT2=
EXTT3=
EXTT4=
EXTT5=
EXTT6=
EXTT7=
PLAYORDER=
